<mxfile host="app.diagrams.net" modified="2024-06-19T20:29:24.607Z" agent="Mozilla/5.0 (Windows NT 10.0; Win64; x64) AppleWebKit/537.36 (KHTML, like Gecko) Chrome/125.0.0.0 Safari/537.36" etag="3BoG3_D5wXQQOiXAozfr" version="24.5.5" type="device">
  <diagram name="Página-1" id="Fe20O5Qa-KM9UbS3pKCC">
    <mxGraphModel dx="1247" dy="671" grid="1" gridSize="10" guides="1" tooltips="1" connect="1" arrows="1" fold="1" page="1" pageScale="1" pageWidth="1654" pageHeight="1169" math="0" shadow="0">
      <root>
        <mxCell id="0" />
        <mxCell id="1" parent="0" />
        <mxCell id="zzLdQb7FKJMLeM60pIrL-48" style="rounded=0;orthogonalLoop=1;jettySize=auto;html=1;exitX=0.5;exitY=0;exitDx=0;exitDy=0;entryX=0.5;entryY=1;entryDx=0;entryDy=0;endArrow=none;endFill=0;dashed=1;startArrow=classic;startFill=1;" edge="1" parent="1" source="7rpah2ByltG65LKHHttn-3" target="zzLdQb7FKJMLeM60pIrL-47">
          <mxGeometry relative="1" as="geometry" />
        </mxCell>
        <mxCell id="zzLdQb7FKJMLeM60pIrL-49" value="Extends" style="edgeLabel;html=1;align=center;verticalAlign=middle;resizable=0;points=[];" vertex="1" connectable="0" parent="zzLdQb7FKJMLeM60pIrL-48">
          <mxGeometry x="-0.168" y="2" relative="1" as="geometry">
            <mxPoint as="offset" />
          </mxGeometry>
        </mxCell>
        <mxCell id="7rpah2ByltG65LKHHttn-3" value="Ver catálogo de produtos" style="ellipse;whiteSpace=wrap;html=1;" parent="1" vertex="1">
          <mxGeometry x="60" y="230" width="80" height="50" as="geometry" />
        </mxCell>
        <mxCell id="7rpah2ByltG65LKHHttn-27" style="rounded=0;orthogonalLoop=1;jettySize=auto;html=1;dashed=1;startArrow=classic;startFill=1;endArrow=none;endFill=0;" parent="1" source="7rpah2ByltG65LKHHttn-5" target="7rpah2ByltG65LKHHttn-12" edge="1">
          <mxGeometry relative="1" as="geometry">
            <mxPoint x="300" y="100" as="targetPoint" />
          </mxGeometry>
        </mxCell>
        <mxCell id="7rpah2ByltG65LKHHttn-30" value="Extends" style="edgeLabel;html=1;align=center;verticalAlign=middle;resizable=0;points=[];" parent="7rpah2ByltG65LKHHttn-27" vertex="1" connectable="0">
          <mxGeometry x="-0.0462" relative="1" as="geometry">
            <mxPoint as="offset" />
          </mxGeometry>
        </mxCell>
        <mxCell id="7rpah2ByltG65LKHHttn-28" style="rounded=0;orthogonalLoop=1;jettySize=auto;html=1;dashed=1;startArrow=classic;startFill=1;endArrow=none;endFill=0;" parent="1" source="7rpah2ByltG65LKHHttn-5" target="7rpah2ByltG65LKHHttn-13" edge="1">
          <mxGeometry relative="1" as="geometry" />
        </mxCell>
        <mxCell id="zzLdQb7FKJMLeM60pIrL-1" value="Extends" style="edgeLabel;html=1;align=center;verticalAlign=middle;resizable=0;points=[];" vertex="1" connectable="0" parent="7rpah2ByltG65LKHHttn-28">
          <mxGeometry x="0.1094" relative="1" as="geometry">
            <mxPoint as="offset" />
          </mxGeometry>
        </mxCell>
        <mxCell id="7rpah2ByltG65LKHHttn-29" style="rounded=0;orthogonalLoop=1;jettySize=auto;html=1;dashed=1;startArrow=classic;startFill=1;endArrow=none;endFill=0;" parent="1" source="7rpah2ByltG65LKHHttn-5" target="7rpah2ByltG65LKHHttn-14" edge="1">
          <mxGeometry relative="1" as="geometry" />
        </mxCell>
        <mxCell id="zzLdQb7FKJMLeM60pIrL-2" value="Extends" style="edgeLabel;html=1;align=center;verticalAlign=middle;resizable=0;points=[];" vertex="1" connectable="0" parent="7rpah2ByltG65LKHHttn-29">
          <mxGeometry x="0.0672" y="-1" relative="1" as="geometry">
            <mxPoint as="offset" />
          </mxGeometry>
        </mxCell>
        <mxCell id="zzLdQb7FKJMLeM60pIrL-3" style="rounded=0;orthogonalLoop=1;jettySize=auto;html=1;" edge="1" parent="1" source="7rpah2ByltG65LKHHttn-5" target="7rpah2ByltG65LKHHttn-3">
          <mxGeometry relative="1" as="geometry" />
        </mxCell>
        <mxCell id="zzLdQb7FKJMLeM60pIrL-4" value="Includes" style="edgeLabel;html=1;align=center;verticalAlign=middle;resizable=0;points=[];" vertex="1" connectable="0" parent="zzLdQb7FKJMLeM60pIrL-3">
          <mxGeometry x="-0.063" y="1" relative="1" as="geometry">
            <mxPoint as="offset" />
          </mxGeometry>
        </mxCell>
        <mxCell id="7rpah2ByltG65LKHHttn-5" value="Pesquisar produtos" style="ellipse;whiteSpace=wrap;html=1;" parent="1" vertex="1">
          <mxGeometry x="230" y="250" width="80" height="50" as="geometry" />
        </mxCell>
        <mxCell id="7rpah2ByltG65LKHHttn-6" value="Usuário" style="shape=umlActor;verticalLabelPosition=bottom;verticalAlign=top;html=1;outlineConnect=0;" parent="1" vertex="1">
          <mxGeometry x="250" y="105" width="30" height="60" as="geometry" />
        </mxCell>
        <mxCell id="7rpah2ByltG65LKHHttn-10" style="rounded=0;orthogonalLoop=1;jettySize=auto;html=1;endArrow=block;endFill=0;" parent="1" source="7rpah2ByltG65LKHHttn-7" target="7rpah2ByltG65LKHHttn-6" edge="1">
          <mxGeometry relative="1" as="geometry">
            <mxPoint x="225" y="220" as="targetPoint" />
          </mxGeometry>
        </mxCell>
        <mxCell id="7rpah2ByltG65LKHHttn-7" value="Cliente" style="shape=umlActor;verticalLabelPosition=bottom;verticalAlign=top;html=1;outlineConnect=0;" parent="1" vertex="1">
          <mxGeometry x="730" y="105" width="30" height="60" as="geometry" />
        </mxCell>
        <mxCell id="7rpah2ByltG65LKHHttn-9" style="rounded=0;orthogonalLoop=1;jettySize=auto;html=1;endArrow=block;endFill=0;" parent="1" source="7rpah2ByltG65LKHHttn-8" target="7rpah2ByltG65LKHHttn-7" edge="1">
          <mxGeometry relative="1" as="geometry" />
        </mxCell>
        <mxCell id="zzLdQb7FKJMLeM60pIrL-32" style="rounded=0;orthogonalLoop=1;jettySize=auto;html=1;endArrow=none;endFill=0;" edge="1" parent="1" source="7rpah2ByltG65LKHHttn-8" target="zzLdQb7FKJMLeM60pIrL-26">
          <mxGeometry relative="1" as="geometry" />
        </mxCell>
        <mxCell id="zzLdQb7FKJMLeM60pIrL-33" style="rounded=0;orthogonalLoop=1;jettySize=auto;html=1;exitX=0;exitY=1;exitDx=0;exitDy=0;exitPerimeter=0;endArrow=none;endFill=0;" edge="1" parent="1" source="7rpah2ByltG65LKHHttn-8" target="zzLdQb7FKJMLeM60pIrL-27">
          <mxGeometry relative="1" as="geometry" />
        </mxCell>
        <mxCell id="zzLdQb7FKJMLeM60pIrL-34" style="rounded=0;orthogonalLoop=1;jettySize=auto;html=1;endArrow=none;endFill=0;" edge="1" parent="1" source="7rpah2ByltG65LKHHttn-8" target="zzLdQb7FKJMLeM60pIrL-28">
          <mxGeometry relative="1" as="geometry" />
        </mxCell>
        <mxCell id="zzLdQb7FKJMLeM60pIrL-35" style="rounded=0;orthogonalLoop=1;jettySize=auto;html=1;endArrow=none;endFill=0;" edge="1" parent="1" source="7rpah2ByltG65LKHHttn-8" target="zzLdQb7FKJMLeM60pIrL-31">
          <mxGeometry relative="1" as="geometry" />
        </mxCell>
        <mxCell id="zzLdQb7FKJMLeM60pIrL-36" style="rounded=0;orthogonalLoop=1;jettySize=auto;html=1;endArrow=none;endFill=0;" edge="1" parent="1" source="7rpah2ByltG65LKHHttn-8" target="zzLdQb7FKJMLeM60pIrL-30">
          <mxGeometry relative="1" as="geometry" />
        </mxCell>
        <mxCell id="7rpah2ByltG65LKHHttn-8" value="Admin" style="shape=umlActor;verticalLabelPosition=bottom;verticalAlign=top;html=1;outlineConnect=0;" parent="1" vertex="1">
          <mxGeometry x="1230" y="105" width="30" height="60" as="geometry" />
        </mxCell>
        <mxCell id="7rpah2ByltG65LKHHttn-12" value="Pesquisar por categoria" style="ellipse;whiteSpace=wrap;html=1;" parent="1" vertex="1">
          <mxGeometry x="210" y="370" width="80" height="50" as="geometry" />
        </mxCell>
        <mxCell id="7rpah2ByltG65LKHHttn-13" value="Pesquisar por nome" style="ellipse;whiteSpace=wrap;html=1;" parent="1" vertex="1">
          <mxGeometry x="300" y="340" width="80" height="50" as="geometry" />
        </mxCell>
        <mxCell id="7rpah2ByltG65LKHHttn-14" value="Pesquisar por preço" style="ellipse;whiteSpace=wrap;html=1;" parent="1" vertex="1">
          <mxGeometry x="120" y="330" width="80" height="50" as="geometry" />
        </mxCell>
        <mxCell id="7rpah2ByltG65LKHHttn-15" value="Cadastrar" style="ellipse;whiteSpace=wrap;html=1;" parent="1" vertex="1">
          <mxGeometry x="420" y="190" width="80" height="50" as="geometry" />
        </mxCell>
        <mxCell id="7rpah2ByltG65LKHHttn-19" value="Login" style="ellipse;whiteSpace=wrap;html=1;" parent="1" vertex="1">
          <mxGeometry x="350" y="250" width="80" height="50" as="geometry" />
        </mxCell>
        <mxCell id="7rpah2ByltG65LKHHttn-21" value="Adicionar produtos ao carrinho" style="ellipse;whiteSpace=wrap;html=1;" parent="1" vertex="1">
          <mxGeometry x="770" y="320" width="80" height="50" as="geometry" />
        </mxCell>
        <mxCell id="7rpah2ByltG65LKHHttn-23" value="Acessar perfil" style="ellipse;whiteSpace=wrap;html=1;" parent="1" vertex="1">
          <mxGeometry x="810" y="240" width="80" height="50" as="geometry" />
        </mxCell>
        <mxCell id="7rpah2ByltG65LKHHttn-33" value="" style="endArrow=none;html=1;rounded=0;" parent="1" target="7rpah2ByltG65LKHHttn-5" edge="1" source="7rpah2ByltG65LKHHttn-6">
          <mxGeometry width="50" height="50" relative="1" as="geometry">
            <mxPoint x="250" y="248.2802666455376" as="sourcePoint" />
            <mxPoint x="300" y="210" as="targetPoint" />
          </mxGeometry>
        </mxCell>
        <mxCell id="7rpah2ByltG65LKHHttn-34" value="" style="endArrow=none;html=1;rounded=0;" parent="1" target="7rpah2ByltG65LKHHttn-3" edge="1" source="7rpah2ByltG65LKHHttn-6">
          <mxGeometry width="50" height="50" relative="1" as="geometry">
            <mxPoint x="250" y="268.545664804323" as="sourcePoint" />
            <mxPoint x="330" y="260" as="targetPoint" />
          </mxGeometry>
        </mxCell>
        <mxCell id="7rpah2ByltG65LKHHttn-36" value="" style="endArrow=none;html=1;rounded=0;" parent="1" source="7rpah2ByltG65LKHHttn-6" target="7rpah2ByltG65LKHHttn-15" edge="1">
          <mxGeometry width="50" height="50" relative="1" as="geometry">
            <mxPoint x="385" y="460" as="sourcePoint" />
            <mxPoint x="435" y="410" as="targetPoint" />
          </mxGeometry>
        </mxCell>
        <mxCell id="7rpah2ByltG65LKHHttn-37" value="" style="endArrow=none;html=1;rounded=0;" parent="1" source="7rpah2ByltG65LKHHttn-6" target="7rpah2ByltG65LKHHttn-19" edge="1">
          <mxGeometry width="50" height="50" relative="1" as="geometry">
            <mxPoint x="390" y="510" as="sourcePoint" />
            <mxPoint x="440" y="460" as="targetPoint" />
          </mxGeometry>
        </mxCell>
        <mxCell id="2QKdTkEP-lg952brULw1-1" value="" style="endArrow=none;html=1;rounded=0;" parent="1" source="7rpah2ByltG65LKHHttn-7" target="7rpah2ByltG65LKHHttn-23" edge="1">
          <mxGeometry width="50" height="50" relative="1" as="geometry">
            <mxPoint x="770" y="310" as="sourcePoint" />
            <mxPoint x="820" y="260" as="targetPoint" />
          </mxGeometry>
        </mxCell>
        <mxCell id="2QKdTkEP-lg952brULw1-2" value="" style="endArrow=none;html=1;rounded=0;" parent="1" source="7rpah2ByltG65LKHHttn-7" target="7rpah2ByltG65LKHHttn-21" edge="1">
          <mxGeometry width="50" height="50" relative="1" as="geometry">
            <mxPoint x="810" y="330" as="sourcePoint" />
            <mxPoint x="860" y="280" as="targetPoint" />
          </mxGeometry>
        </mxCell>
        <mxCell id="zzLdQb7FKJMLeM60pIrL-5" value="Ver histórico de pedidos do cliente" style="ellipse;whiteSpace=wrap;html=1;shadow=0;" vertex="1" parent="1">
          <mxGeometry x="850" y="170" width="80" height="50" as="geometry" />
        </mxCell>
        <mxCell id="zzLdQb7FKJMLeM60pIrL-18" style="rounded=0;orthogonalLoop=1;jettySize=auto;html=1;" edge="1" parent="1" source="zzLdQb7FKJMLeM60pIrL-7" target="zzLdQb7FKJMLeM60pIrL-17">
          <mxGeometry relative="1" as="geometry" />
        </mxCell>
        <mxCell id="zzLdQb7FKJMLeM60pIrL-7" value="Checkout" style="ellipse;whiteSpace=wrap;html=1;shadow=0;" vertex="1" parent="1">
          <mxGeometry x="510" y="289.9999999999998" width="80" height="50" as="geometry" />
        </mxCell>
        <mxCell id="zzLdQb7FKJMLeM60pIrL-9" value="" style="endArrow=none;html=1;rounded=0;" edge="1" parent="1" source="7rpah2ByltG65LKHHttn-7" target="zzLdQb7FKJMLeM60pIrL-12">
          <mxGeometry width="50" height="50" relative="1" as="geometry">
            <mxPoint x="800" y="160" as="sourcePoint" />
            <mxPoint x="850" y="110" as="targetPoint" />
          </mxGeometry>
        </mxCell>
        <mxCell id="zzLdQb7FKJMLeM60pIrL-13" style="rounded=0;orthogonalLoop=1;jettySize=auto;html=1;dashed=1;startArrow=classic;startFill=1;endArrow=none;endFill=0;" edge="1" parent="1" source="zzLdQb7FKJMLeM60pIrL-12" target="zzLdQb7FKJMLeM60pIrL-7">
          <mxGeometry relative="1" as="geometry" />
        </mxCell>
        <mxCell id="zzLdQb7FKJMLeM60pIrL-14" value="Extends" style="edgeLabel;html=1;align=center;verticalAlign=middle;resizable=0;points=[];" vertex="1" connectable="0" parent="zzLdQb7FKJMLeM60pIrL-13">
          <mxGeometry x="-0.0351" y="2" relative="1" as="geometry">
            <mxPoint as="offset" />
          </mxGeometry>
        </mxCell>
        <mxCell id="zzLdQb7FKJMLeM60pIrL-12" value="Acessar carrinho" style="ellipse;whiteSpace=wrap;html=1;shadow=0;" vertex="1" parent="1">
          <mxGeometry x="560" y="169.99999999999977" width="80" height="50" as="geometry" />
        </mxCell>
        <mxCell id="zzLdQb7FKJMLeM60pIrL-15" value="Adicionar endereço de entrega" style="ellipse;whiteSpace=wrap;html=1;shadow=0;" vertex="1" parent="1">
          <mxGeometry x="450" y="379.9999999999998" width="80" height="50" as="geometry" />
        </mxCell>
        <mxCell id="zzLdQb7FKJMLeM60pIrL-16" value="Adicionar forma de pagamento" style="ellipse;whiteSpace=wrap;html=1;shadow=0;" vertex="1" parent="1">
          <mxGeometry x="440" y="479.9999999999998" width="80" height="50" as="geometry" />
        </mxCell>
        <mxCell id="zzLdQb7FKJMLeM60pIrL-19" style="rounded=0;orthogonalLoop=1;jettySize=auto;html=1;exitX=0;exitY=0.5;exitDx=0;exitDy=0;" edge="1" parent="1" source="zzLdQb7FKJMLeM60pIrL-17" target="zzLdQb7FKJMLeM60pIrL-15">
          <mxGeometry relative="1" as="geometry" />
        </mxCell>
        <mxCell id="zzLdQb7FKJMLeM60pIrL-21" value="Includes" style="edgeLabel;html=1;align=center;verticalAlign=middle;resizable=0;points=[];" vertex="1" connectable="0" parent="zzLdQb7FKJMLeM60pIrL-19">
          <mxGeometry x="-0.1282" y="1" relative="1" as="geometry">
            <mxPoint as="offset" />
          </mxGeometry>
        </mxCell>
        <mxCell id="zzLdQb7FKJMLeM60pIrL-20" style="rounded=0;orthogonalLoop=1;jettySize=auto;html=1;exitX=0;exitY=1;exitDx=0;exitDy=0;" edge="1" parent="1" source="zzLdQb7FKJMLeM60pIrL-17" target="zzLdQb7FKJMLeM60pIrL-16">
          <mxGeometry relative="1" as="geometry" />
        </mxCell>
        <mxCell id="zzLdQb7FKJMLeM60pIrL-22" value="Includes" style="edgeLabel;html=1;align=center;verticalAlign=middle;resizable=0;points=[];" vertex="1" connectable="0" parent="zzLdQb7FKJMLeM60pIrL-20">
          <mxGeometry x="-0.1297" y="2" relative="1" as="geometry">
            <mxPoint as="offset" />
          </mxGeometry>
        </mxCell>
        <mxCell id="zzLdQb7FKJMLeM60pIrL-17" value="Finalizar pedido" style="ellipse;whiteSpace=wrap;html=1;shadow=0;" vertex="1" parent="1">
          <mxGeometry x="580" y="409.9999999999998" width="80" height="50" as="geometry" />
        </mxCell>
        <mxCell id="zzLdQb7FKJMLeM60pIrL-23" value="" style="endArrow=none;html=1;rounded=0;" edge="1" parent="1" source="zzLdQb7FKJMLeM60pIrL-5" target="7rpah2ByltG65LKHHttn-7">
          <mxGeometry width="50" height="50" relative="1" as="geometry">
            <mxPoint x="820" y="280" as="sourcePoint" />
            <mxPoint x="870" y="230" as="targetPoint" />
          </mxGeometry>
        </mxCell>
        <mxCell id="zzLdQb7FKJMLeM60pIrL-26" value="Atualizar status de pedidos" style="ellipse;whiteSpace=wrap;html=1;shadow=0;" vertex="1" parent="1">
          <mxGeometry x="1030" y="289.9999999999998" width="80" height="50" as="geometry" />
        </mxCell>
        <mxCell id="zzLdQb7FKJMLeM60pIrL-27" value="Adicionar produto" style="ellipse;whiteSpace=wrap;html=1;shadow=0;" vertex="1" parent="1">
          <mxGeometry x="1140" y="259.9999999999998" width="80" height="50" as="geometry" />
        </mxCell>
        <mxCell id="zzLdQb7FKJMLeM60pIrL-28" value="Editar produto" style="ellipse;whiteSpace=wrap;html=1;shadow=0;" vertex="1" parent="1">
          <mxGeometry x="1240" y="299.9999999999998" width="80" height="50" as="geometry" />
        </mxCell>
        <mxCell id="zzLdQb7FKJMLeM60pIrL-29" value="Excluir produto" style="ellipse;whiteSpace=wrap;html=1;shadow=0;" vertex="1" parent="1">
          <mxGeometry x="1300" y="419.9999999999998" width="80" height="50" as="geometry" />
        </mxCell>
        <mxCell id="zzLdQb7FKJMLeM60pIrL-30" value="Alterar informações do estoque" style="ellipse;whiteSpace=wrap;html=1;shadow=0;" vertex="1" parent="1">
          <mxGeometry x="1390" y="209.99999999999977" width="80" height="50" as="geometry" />
        </mxCell>
        <mxCell id="zzLdQb7FKJMLeM60pIrL-39" style="rounded=0;orthogonalLoop=1;jettySize=auto;html=1;" edge="1" parent="1" source="zzLdQb7FKJMLeM60pIrL-31" target="zzLdQb7FKJMLeM60pIrL-29">
          <mxGeometry relative="1" as="geometry" />
        </mxCell>
        <mxCell id="zzLdQb7FKJMLeM60pIrL-40" value="Includes" style="edgeLabel;html=1;align=center;verticalAlign=middle;resizable=0;points=[];" vertex="1" connectable="0" parent="zzLdQb7FKJMLeM60pIrL-39">
          <mxGeometry x="-0.1115" relative="1" as="geometry">
            <mxPoint as="offset" />
          </mxGeometry>
        </mxCell>
        <mxCell id="zzLdQb7FKJMLeM60pIrL-31" value="Excluir produto em estoque" style="ellipse;whiteSpace=wrap;html=1;shadow=0;" vertex="1" parent="1">
          <mxGeometry x="1340" y="279.9999999999998" width="80" height="50" as="geometry" />
        </mxCell>
        <mxCell id="zzLdQb7FKJMLeM60pIrL-41" value="Remover produto do carrinho" style="ellipse;whiteSpace=wrap;html=1;shadow=0;" vertex="1" parent="1">
          <mxGeometry x="610" y="269.9999999999998" width="80" height="50" as="geometry" />
        </mxCell>
        <mxCell id="zzLdQb7FKJMLeM60pIrL-45" style="rounded=0;orthogonalLoop=1;jettySize=auto;html=1;exitX=0;exitY=0;exitDx=0;exitDy=0;entryX=0.5;entryY=1;entryDx=0;entryDy=0;" edge="1" parent="1" source="zzLdQb7FKJMLeM60pIrL-42" target="zzLdQb7FKJMLeM60pIrL-41">
          <mxGeometry relative="1" as="geometry" />
        </mxCell>
        <mxCell id="zzLdQb7FKJMLeM60pIrL-46" value="Includes" style="edgeLabel;html=1;align=center;verticalAlign=middle;resizable=0;points=[];" vertex="1" connectable="0" parent="zzLdQb7FKJMLeM60pIrL-45">
          <mxGeometry x="-0.0865" y="2" relative="1" as="geometry">
            <mxPoint as="offset" />
          </mxGeometry>
        </mxCell>
        <mxCell id="zzLdQb7FKJMLeM60pIrL-42" value="Esvaziar carrinho" style="ellipse;whiteSpace=wrap;html=1;shadow=0;" vertex="1" parent="1">
          <mxGeometry x="680" y="349.9999999999998" width="80" height="50" as="geometry" />
        </mxCell>
        <mxCell id="zzLdQb7FKJMLeM60pIrL-43" value="" style="endArrow=none;html=1;rounded=0;" edge="1" parent="1" source="zzLdQb7FKJMLeM60pIrL-42" target="7rpah2ByltG65LKHHttn-7">
          <mxGeometry width="50" height="50" relative="1" as="geometry">
            <mxPoint x="700" y="280" as="sourcePoint" />
            <mxPoint x="750" y="230" as="targetPoint" />
          </mxGeometry>
        </mxCell>
        <mxCell id="zzLdQb7FKJMLeM60pIrL-44" value="" style="endArrow=none;html=1;rounded=0;" edge="1" parent="1" source="zzLdQb7FKJMLeM60pIrL-41" target="7rpah2ByltG65LKHHttn-7">
          <mxGeometry width="50" height="50" relative="1" as="geometry">
            <mxPoint x="650" y="260" as="sourcePoint" />
            <mxPoint x="700" y="210" as="targetPoint" />
          </mxGeometry>
        </mxCell>
        <mxCell id="zzLdQb7FKJMLeM60pIrL-47" value="Ver página de produto individual" style="ellipse;whiteSpace=wrap;html=1;shadow=0;" vertex="1" parent="1">
          <mxGeometry x="50" y="115" width="100" height="55" as="geometry" />
        </mxCell>
        <mxCell id="zzLdQb7FKJMLeM60pIrL-50" value="" style="endArrow=none;html=1;rounded=0;" edge="1" parent="1" source="zzLdQb7FKJMLeM60pIrL-47" target="7rpah2ByltG65LKHHttn-6">
          <mxGeometry width="50" height="50" relative="1" as="geometry">
            <mxPoint x="180" y="150" as="sourcePoint" />
            <mxPoint x="230" y="100" as="targetPoint" />
          </mxGeometry>
        </mxCell>
        <mxCell id="zzLdQb7FKJMLeM60pIrL-51" value="Ver todos os pedidos" style="ellipse;whiteSpace=wrap;html=1;shadow=0;" vertex="1" parent="1">
          <mxGeometry x="990" y="189.99999999999977" width="80" height="50" as="geometry" />
        </mxCell>
        <mxCell id="zzLdQb7FKJMLeM60pIrL-52" value="" style="endArrow=none;html=1;rounded=0;" edge="1" parent="1" source="zzLdQb7FKJMLeM60pIrL-51" target="7rpah2ByltG65LKHHttn-8">
          <mxGeometry width="50" height="50" relative="1" as="geometry">
            <mxPoint x="1100" y="200" as="sourcePoint" />
            <mxPoint x="1150" y="150" as="targetPoint" />
          </mxGeometry>
        </mxCell>
        <mxCell id="zzLdQb7FKJMLeM60pIrL-53" value="" style="endArrow=classic;html=1;rounded=0;startArrow=none;startFill=0;endFill=1;" edge="1" parent="1" source="zzLdQb7FKJMLeM60pIrL-26" target="zzLdQb7FKJMLeM60pIrL-51">
          <mxGeometry width="50" height="50" relative="1" as="geometry">
            <mxPoint x="990" y="290" as="sourcePoint" />
            <mxPoint x="1040" y="240" as="targetPoint" />
          </mxGeometry>
        </mxCell>
        <mxCell id="zzLdQb7FKJMLeM60pIrL-54" value="Includes" style="edgeLabel;html=1;align=center;verticalAlign=middle;resizable=0;points=[];" vertex="1" connectable="0" parent="zzLdQb7FKJMLeM60pIrL-53">
          <mxGeometry x="-0.0372" relative="1" as="geometry">
            <mxPoint as="offset" />
          </mxGeometry>
        </mxCell>
        <mxCell id="zzLdQb7FKJMLeM60pIrL-55" value="Alterar dados do perfil do cliente" style="ellipse;whiteSpace=wrap;html=1;shadow=0;" vertex="1" parent="1">
          <mxGeometry x="900" y="340.9999999999998" width="80" height="50" as="geometry" />
        </mxCell>
        <mxCell id="zzLdQb7FKJMLeM60pIrL-56" value="" style="endArrow=classic;html=1;rounded=0;endFill=1;startArrow=none;startFill=0;dashed=1;" edge="1" parent="1" source="zzLdQb7FKJMLeM60pIrL-55" target="7rpah2ByltG65LKHHttn-23">
          <mxGeometry width="50" height="50" relative="1" as="geometry">
            <mxPoint x="890" y="340" as="sourcePoint" />
            <mxPoint x="940" y="290" as="targetPoint" />
          </mxGeometry>
        </mxCell>
        <mxCell id="zzLdQb7FKJMLeM60pIrL-57" value="Extends" style="edgeLabel;html=1;align=center;verticalAlign=middle;resizable=0;points=[];" vertex="1" connectable="0" parent="zzLdQb7FKJMLeM60pIrL-56">
          <mxGeometry x="0.0745" y="1" relative="1" as="geometry">
            <mxPoint as="offset" />
          </mxGeometry>
        </mxCell>
      </root>
    </mxGraphModel>
  </diagram>
</mxfile>
